<svg id="Capa_1" enable-background="new 0 0 512.001 512.001" height="512" viewBox="0 0 512.001 512.001" width="512" xmlns="http://www.w3.org/2000/svg"><g><g><g><path d="m106.902 388.537h-33.138c-36.596 0-66.263 29.667-66.263 66.263v33.135c0 9.15 7.417 16.567 16.567 16.567h248.498c9.15 0 16.567-7.417 16.567-16.567v-33.135c0-36.596-29.667-66.263-66.263-66.263h-33.139z" fill="#68d9c0"/><g><g><path d="m222.87 388.537h-22.986c36.59.007 66.249 29.671 66.249 66.262v33.135c0 9.149-7.417 16.567-16.567 16.567h22.999c9.15 0 16.567-7.417 16.567-16.567v-33.134c.001-36.596-29.666-66.263-66.262-66.263z" fill="#4fc6b9"/></g></g><path d="m106.9 339.753h82.833v75.246h-82.833z" fill="#fb9"/><path d="m48.918 211.251v-38.083c0-36.598 29.669-66.267 66.267-66.267h66.267c36.598 0 66.267 29.669 66.267 66.267v38.083z" fill="#595353"/><path d="m247.718 272.568c9.15 0 16.567-7.417 16.567-16.567v-33.133c0-9.15-7.417-16.567-16.567-16.567h-198.799c-9.15 0-16.567 7.417-16.567 16.567v33.133c0 9.15 7.417 16.567 16.567 16.567z" fill="#fb9"/><path d="m247.718 206.302h-16.567-6.433c9.15 0 16.567 7.417 16.567 16.567v33.133c0 9.15-7.417 16.567-16.567 16.567h6.433 16.567c9.15 0 16.567-7.417 16.567-16.567v-33.133c-.001-9.15-7.418-16.567-16.567-16.567z" fill="#ffa27d"/><path d="m65.485 167.751.001 104.82c0 45.747 37.085 82.832 82.832 82.832s82.832-37.085 82.832-82.832v-104.82z" fill="#ffd9b3"/><path d="m197.301 408.208h-97.967l48.984 66.266z" fill="#cfd7e6"/><path d="m65.484 206.302h69.049c27.449 0 49.7-22.252 49.7-49.7v-20.1h-118.748l-6.485 36.666z" fill="#595353"/><path d="m231.151 206.302h-16.567c-18.299 0-33.133-14.834-33.133-33.133v-14.092h51.549z" fill="#595353"/><path d="m224.718 206.302h23v-33.133c0-36.598-29.669-66.267-66.267-66.267h-22.998c36.597.001 66.265 29.669 66.265 66.267z" fill="#403939"/><path d="m148.318 474.474-66.517-44.344c-4.224-2.816-4.944-8.734-1.519-12.481l26.616-29.114 41.42 85.939 41.419-85.94 26.617 29.114c3.425 3.747 2.705 9.665-1.519 12.481-.001.001-66.517 44.345-66.517 44.345z" fill="#f3f5f9"/></g><path d="m421.667 90.337c0-46.247-37.899-83.642-84.334-82.82-45.319.801-81.333 37.495-81.333 82.82 0 30.629 16.632 57.362 41.351 71.692 5.115 2.965 8.349 8.344 8.349 14.257v23.216h66.267v-23.091c0-5.981 3.264-11.427 8.435-14.432 24.672-14.341 41.265-41.048 41.265-71.642z" fill="#ffdf40"/><path d="m337.333 7.517c-3.39.06-6.72.344-9.995.795 40.269 5.629 71.263 40.205 71.263 82.025 0 30.594-16.593 57.301-41.265 71.644-5.171 3.006-8.435 8.452-8.435 14.432v23.091h23.066v-23.091c0-5.981 3.264-11.427 8.435-14.432 24.672-14.342 41.265-41.049 41.265-71.644 0-46.247-37.9-83.642-84.334-82.82z" fill="#ffbe40"/><path d="m355.967 256.003h-34.267c-8.836 0-16-7.164-16-16v-33.7h66.267v33.7c0 8.837-7.164 16-16 16z" fill="#cfd7e6"/><path d="m348.967 206.303v33.7c0 8.837-7.163 16-16 16h23c8.837 0 16-7.163 16-16v-33.7z" fill="#b4c2db"/><path d="m371.967 222.87c9.15 0 16.567-7.417 16.567-16.567 0-9.149-7.417-16.567-16.567-16.567h-66.267c-9.15 0-16.567 7.417-16.567 16.567s7.417 16.567 16.567 16.567z" fill="#f3f5f9"/><path d="m371.967 189.737h-23c9.15 0 16.567 7.417 16.567 16.567s-7.417 16.567-16.567 16.567h23c9.15 0 16.567-7.417 16.567-16.567-.001-9.15-7.418-16.567-16.567-16.567z" fill="#cfd7e6"/></g><g><path d="m115.185 231.935c-4.142 0-7.5 3.357-7.5 7.5v8.283c0 4.143 3.358 7.5 7.5 7.5s7.5-3.357 7.5-7.5v-8.283c0-4.143-3.358-7.5-7.5-7.5z"/><path d="m181.451 255.218c4.142 0 7.5-3.357 7.5-7.5v-8.283c0-4.143-3.358-7.5-7.5-7.5s-7.5 3.357-7.5 7.5v8.283c0 4.143 3.358 7.5 7.5 7.5z"/><path d="m169.15 284.616c2.078-3.584.857-8.173-2.727-10.25-3.584-2.079-8.174-.858-10.25 2.727-1.625 2.804-4.635 4.545-7.855 4.545s-6.229-1.741-7.854-4.545c-2.078-3.585-6.666-4.805-10.25-2.729-3.583 2.077-4.805 6.667-2.728 10.25 4.298 7.416 12.281 12.023 20.832 12.023s16.533-4.606 20.832-12.021z"/><path d="m222.87 381.037-25.636.001v-32.558c22.924-14.824 38.737-39.741 41.104-68.412h9.38c13.27 0 24.067-10.796 24.067-24.066v-33.133c0-10.652-6.959-19.704-16.567-22.865v-26.836c0-40.675-33.091-73.767-73.767-73.767h-66.267c-40.675 0-73.767 33.092-73.767 73.767v26.836c-9.608 3.16-16.566 12.212-16.566 22.864v33.133c0 13.271 10.796 24.067 24.067 24.067h9.382c2.367 28.67 18.178 53.585 41.1 68.409v32.56l-25.636-.001c-40.673 0-73.763 33.09-73.763 73.763v33.136c0 13.271 10.796 24.066 24.066 24.066h27.2c4.142 0 7.5-3.357 7.5-7.5s-3.358-7.5-7.5-7.5h-27.2c-4.999 0-9.066-4.067-9.066-9.066v-33.136c0-32.402 26.361-58.763 58.763-58.763h16.114l-15.131 16.551c-3.111 3.402-4.576 7.979-4.02 12.556.557 4.577 3.076 8.669 6.913 11.227l66.517 44.344c1.279.852 2.724 1.261 4.153 1.261 1.462 0 2.903-.434 4.137-1.248.01-.006.02-.006.03-.013l.086-.057c.011-.007.022-.014.032-.022l66.399-44.265c3.836-2.558 6.356-6.65 6.913-11.228.557-4.577-.908-9.153-4.019-12.555l-15.131-16.551h16.112c32.402 0 58.763 26.36 58.763 58.763v33.136c0 4.999-4.067 9.066-9.066 9.066h-191.299c-4.142 0-7.5 3.357-7.5 7.5s3.358 7.5 7.5 7.5h191.299c13.27 0 24.066-10.796 24.066-24.066v-33.136c.001-40.673-33.089-73.762-73.762-73.762zm33.914-125.036c0 4.999-4.067 9.066-9.067 9.066h-9.066v-51.267h9.066c5 0 9.067 4.067 9.067 9.067zm-141.6-141.599h66.267c32.404 0 58.767 26.362 58.767 58.767v25.633h-25.633c-13.812 0-25.101-10.982-25.609-24.672 1.784-5.527 2.758-11.415 2.758-17.529 0-4.143-3.358-7.5-7.5-7.5s-7.5 3.357-7.5 7.5c0 23.27-18.931 42.2-42.2 42.2h-78.116v-25.633c0-32.404 26.363-58.766 58.766-58.766zm-75.332 141.599v-33.133c0-5 4.067-9.067 9.067-9.067h9.067l.001 51.268h-9.068c-5 0-9.067-4.068-9.067-9.068zm33.135 16.57-.001-58.77h61.548c17.896 0 33.893-8.267 44.389-21.176 6.906 12.607 20.301 21.176 35.662 21.176h9.067v58.767.003c0 41.539-33.794 75.333-75.333 75.333-41.538 0-75.332-33.794-75.332-75.333zm75.332 90.333c11.989 0 23.438-2.354 33.915-6.614v30.537l-6.69 13.881h-54.453l-6.69-13.882v-30.537c10.478 4.261 21.927 6.615 33.918 6.615zm19.996 52.804-19.997 41.492-19.998-41.492zm-82.697 7.625c-.044-.358.14-.558.2-.623l19.136-20.933 24.695 51.239-43.687-29.126c-.075-.05-.301-.2-.344-.557zm125.399 0c-.044.357-.27.508-.343.558l-43.689 29.126 24.695-51.24 19.138 20.934c.06.065.243.264.199.622z"/><path d="m337.2.016c-20.737.367-40.838 7.874-56.598 21.14-3.169 2.668-3.576 7.399-.908 10.568 2.667 3.169 7.399 3.576 10.567.908 13.325-11.216 29.648-17.308 47.205-17.618 20.402-.381 39.628 7.304 54.159 21.579 14.536 14.281 22.542 33.367 22.542 53.741 0 26.733-14.382 51.701-37.535 65.159-7.503 4.362-12.165 12.378-12.165 20.917v5.824h-18.133v-51.267h9.066c4.142 0 7.5-3.357 7.5-7.5s-3.358-7.5-7.5-7.5h-33.133c-4.142 0-7.5 3.357-7.5 7.5s3.358 7.5 7.5 7.5h9.067v51.267h-18.134v-5.949c0-8.474-4.631-16.423-12.087-20.746-23.2-13.449-37.612-38.435-37.613-65.204 0-12.679 3.171-25.192 9.17-36.189 1.984-3.637.644-8.192-2.992-10.176-3.638-1.984-8.192-.645-10.176 2.992-7.198 13.195-11.002 28.193-11.002 43.373.001 32.101 17.278 62.058 45.089 78.181 2.844 1.65 4.611 4.626 4.611 7.77v7.152c-9.608 3.16-16.567 12.212-16.567 22.863 0 10.652 6.959 19.704 16.567 22.865v10.836c0 12.958 10.542 23.5 23.5 23.5h34.267c12.958 0 23.5-10.542 23.5-23.5v-10.836c9.608-3.16 16.566-12.212 16.566-22.865 0-10.652-6.958-19.704-16.566-22.863v-7.027c0-3.216 1.803-6.262 4.704-7.948 27.755-16.134 44.996-46.07 44.996-78.128 0-24.432-9.599-47.317-27.029-64.441-17.426-17.121-40.486-26.329-64.938-25.878zm27.267 239.985c0 4.687-3.813 8.5-8.5 8.5h-34.267c-4.687 0-8.5-3.813-8.5-8.5v-9.633h51.267zm7.5-24.632h-66.267c-4.999 0-9.067-4.067-9.067-9.067 0-4.999 4.067-9.066 9.067-9.066h66.267c4.999 0 9.066 4.067 9.066 9.066s-4.067 9.067-9.066 9.067z"/><path d="m477.177 232.94-28.694-16.566c-3.587-2.071-8.174-.843-10.245 2.745-2.071 3.587-.842 8.174 2.745 10.245l28.694 16.566c1.181.682 2.471 1.006 3.743 1.006 2.592 0 5.113-1.345 6.502-3.751 2.071-3.587.842-8.174-2.745-10.245z"/><path d="m504.5 115.968h-33.133c-4.142 0-7.5 3.357-7.5 7.5s3.358 7.5 7.5 7.5h33.133c4.142 0 7.5-3.357 7.5-7.5 0-4.142-3.358-7.5-7.5-7.5z"/><path d="m444.74 31.569c1.272 0 2.562-.324 3.743-1.006l28.694-16.566c3.587-2.071 4.816-6.658 2.745-10.245-2.071-3.588-6.658-4.815-10.245-2.745l-28.694 16.566c-3.587 2.071-4.816 6.658-2.745 10.245 1.389 2.406 3.91 3.751 6.502 3.751z"/><path d="m200.49 13.997 28.694 16.566c1.181.682 2.471 1.006 3.743 1.006 2.592 0 5.113-1.345 6.502-3.751 2.071-3.587.842-8.174-2.745-10.245l-28.694-16.567c-3.587-2.071-8.174-.843-10.245 2.745-2.071 3.587-.842 8.174 2.745 10.246z"/></g></g></svg>