<svg id="Layer_1" enable-background="new 0 0 512 512" height="512" viewBox="0 0 512 512" width="512" xmlns="http://www.w3.org/2000/svg"><path d="m191 221h130v40h-130z" fill="#ffcd69"/><path d="m256 171c-35.899 0-65-29.101-65-65v-96h130v96c0 35.899-29.101 65-65 65z" fill="#ffcd69"/><path d="m231 176h50v40h-50z" fill="#ffcd69" transform="matrix(0 1 -1 0 452 -60)"/><g fill="#66e0f7"><circle cx="35" cy="477" r="25"/><circle cx="477" cy="477" r="25"/><circle cx="301" cy="477" r="25"/><circle cx="211" cy="477" r="25"/></g><path d="m487 443.463v-31.463c0-5.523-4.477-10-10-10h-78v-30c0-5.523-4.477-10-10-10h-123v-21c0-5.523-4.477-10-10-10s-10 4.477-10 10v21h-123c-5.523 0-10 4.477-10 10v30h-78c-5.523 0-10 4.477-10 10v31.463c-14.44 4.314-25 17.713-25 33.537 0 19.299 15.701 35 35 35s35-15.701 35-35c0-15.824-10.56-29.223-25-33.537v-21.463h156v21.463c-14.44 4.314-25 17.712-25 33.537 0 19.299 15.701 35 35 35s35-15.701 35-35c0-15.824-10.56-29.223-25-33.537v-31.463c0-5.523-4.477-10-10-10h-78v-20h246v20h-78c-5.523 0-10 4.477-10 10v31.463c-14.44 4.314-25 17.712-25 33.537 0 19.299 15.701 35 35 35s35-15.701 35-35c0-15.824-10.56-29.223-25-33.537v-21.463h156v21.463c-14.44 4.314-25 17.712-25 33.537 0 19.299 15.701 35 35 35s35-15.701 35-35c0-15.824-10.56-29.223-25-33.537zm-437 33.537c0 8.271-6.729 15-15 15s-15-6.729-15-15 6.729-15 15-15 15 6.729 15 15zm176 0c0 8.271-6.729 15-15 15s-15-6.729-15-15 6.729-15 15-15 15 6.729 15 15zm90 0c0 8.271-6.729 15-15 15s-15-6.729-15-15 6.729-15 15-15 15 6.729 15 15zm161 15c-8.271 0-15-6.729-15-15s6.729-15 15-15 15 6.729 15 15-6.729 15-15 15z"/><circle cx="256" cy="301" r="10"/><path d="m186.702 134.656c7.426 17.891 21.584 32.299 39.298 40.062v36.282h-35c-5.523 0-10 4.477-10 10v30h-25c-2.63 0-5.21 1.07-7.07 2.93s-2.93 4.44-2.93 7.07v40c0 2.63 1.07 5.21 2.93 7.07s4.44 2.93 7.07 2.93h55c5.51 0 10-4.49 10-10s-4.49-10-10-10h-45v-20h180v20h-45c-5.51 0-10 4.49-10 10s4.49 10 10 10h55c2.63 0 5.21-1.07 7.07-2.93s2.93-4.44 2.93-7.07v-40c0-2.63-1.07-5.21-2.93-7.07s-4.44-2.93-7.07-2.93h-25v-30c0-5.523-4.477-10-10-10h-35v-36.281c17.716-7.765 31.876-22.176 39.301-40.07 15.712-1.528 30.505-8.086 42.252-18.859 13.508-12.386 21.859-29.265 23.447-47.526.025-.288 0-38.264 0-38.264 0-5.523-4.477-10-10-10h-50v-10c0-5.523-4.477-10-10-10h-130c-5.523 0-10 4.477-10 10v10h-51c-5.523 0-10 4.477-10 10 0 0-.025 37.976 0 38.264 3.05 35.069 31.74 63.016 66.702 66.392zm124.298 116.344h-110v-20h110zm-45-70v30h-20v-30zm-10-20c-30.327 0-55-24.673-55-55v-46h110v46c0 30.327-24.673 55-55 55zm115-121v26.945c-2.19 23.167-18.681 41.482-40.38 46.612.25-2.486.38-5.007.38-7.558v-65.999zm-170-20h110v20h-110zm-61 20h41v66c0 2.549.13 5.068.38 7.552-22.014-5.188-39.209-23.782-41.38-46.608z"/></svg>