<svg id="_x33_0" enable-background="new 0 0 64 64" height="512" viewBox="0 0 64 64" width="512" xmlns="http://www.w3.org/2000/svg"><g><g><g><path d="m49 8v12h-24.4l-.6 3-2-2-1-1h-6v-12h-6v24 27h16.29c-.99-1.1-1.71-2.46-2.06-3.96-.15-.66-.23-1.34-.23-2.04s.08-1.38.23-2.04c.41-1.77 1.34-3.33 2.62-4.52v-.01c.99-.93 2.2-1.64 3.54-2.04.83-.26 1.71-.39 2.61-.39s1.78.13 2.61.39c1.34.4 2.55 1.11 3.54 2.04v.01c1.28 1.19 2.21 2.75 2.62 4.52.15.66.23 1.34.23 2.04s-.08 1.38-.23 2.04c-.35 1.5-1.07 2.86-2.06 3.96h16.29v-27-24z" fill="#b4dd7f"/></g><g><circle cx="32" cy="32" fill="#e6e9ed" r="6"/></g><g><circle cx="47" cy="26" fill="#fcd770" r="2"/></g><g><path d="m24.6 20-.6 3-2-2-1-1-1-1 5-1z" fill="#ff826e"/></g><g><path d="m49 20h-24.4l.4-2-5 1 1 1h-6v-12h7l-1 6h4 14 4l-1-6h7z" fill="#e6e9ed"/></g><g><path d="m42 8 1 6h-4l-1-8h-12l-1 8h-4l1-6 1-6h18z" fill="#ccd1d9"/></g><g><path d="m38 6 1 8h-14l1-8z" fill="#e6e9ed"/></g><g><path d="m38.15 46.43v.01l-.95 3.56-2.2 1-3-2v-2l2.61-2.61c1.34.4 2.55 1.11 3.54 2.04z" fill="#e6e9ed"/></g><g><path d="m40.77 50.96c.15.66.23 1.34.23 2.04s-.08 1.38-.23 2.04l-3.57.96-2.2-1v-4l2.2-1z" fill="#e6e9ed"/></g><g><path d="m37.2 56 .95 3.56v.01c-.99.93-2.2 1.64-3.54 2.04l-2.61-2.61v-2l3-2z" fill="#e6e9ed"/></g><g><path d="m32 57v2l-2.61 2.61c-1.34-.4-2.55-1.11-3.54-2.04v-.01l.95-3.56 2.2-1z" fill="#e6e9ed"/></g><g><path d="m29 51v4l-2.2 1-3.57-.96c-.15-.66-.23-1.34-.23-2.04s.08-1.38.23-2.04l3.57-.96z" fill="#e6e9ed"/></g><g><path d="m32 47v2l-3 2-2.2-1-.95-3.56v-.01c.99-.93 2.2-1.64 3.54-2.04z" fill="#e6e9ed"/></g><g><path d="m32 59 2.61 2.61c-.83.26-1.71.39-2.61.39s-1.78-.13-2.61-.39z" fill="#969faa"/></g><g><path d="m40.77 55.04c-.35 1.5-1.07 2.86-2.06 3.96-.18.2-.36.39-.56.56l-.95-3.56z" fill="#969faa"/></g><g><path d="m40.77 50.96-3.57-.96.95-3.56c1.28 1.19 2.21 2.75 2.62 4.52z" fill="#969faa"/></g><g><path d="m34.61 44.39-2.61 2.61-2.61-2.61c.83-.26 1.71-.39 2.61-.39s1.78.13 2.61.39z" fill="#969faa"/></g><g><path d="m25.85 46.44.95 3.56-3.57.96c.41-1.77 1.34-3.33 2.62-4.52z" fill="#969faa"/></g><g><path d="m26.8 56-.95 3.56c-.2-.17-.38-.36-.56-.56-.99-1.1-1.71-2.46-2.06-3.96z" fill="#969faa"/></g><g><path d="m35 51v4l-3 2-3-2v-4l3-2z" fill="#969faa"/></g></g><g><path d="m56 7h-13.153l-1-6h-19.694l-1 6h-13.153v53h16.871c1.816 1.849 4.339 3 7.129 3s5.313-1.151 7.129-3h16.871zm-2 24h-15.08c-.488-3.387-3.401-6-6.92-6s-6.432 2.613-6.92 6h-6.932c.407-3.178 1.747-6.133 3.887-8.551l2.58 2.58.805-4.029h24.58v-12h4zm-26.899 0c.465-2.279 2.484-4 4.899-4s4.434 1.721 4.899 4zm9.798 2c-.465 2.279-2.484 4-4.899 4s-4.434-1.721-4.899-4zm-14.871-13.386 1.697-.339-.34 1.697zm1.819-16.614h16.307l1.666 10h-1.937l-1-8h-13.766l-1 8h-1.937zm14.02 10h-11.734l.75-6h10.234zm6.314 2-1-6h4.819v10h-22.18l.455-2.275-8.303 1.661.614.614h-2.586v-10h4.82l-1 6zm-30.181-6v12h6.586l.034.034c-2.513 2.802-4.07 6.252-4.492 9.966h-6.128v-22zm10 44c0-.423.043-.836.106-1.242l2.61-.699 1.284.584v2.713l-1.284.585-2.61-.699c-.063-.406-.106-.819-.106-1.242zm3.647 3.715 1.261-.574 2.092 1.394v1.051l-1.872 1.872c-.783-.303-1.509-.72-2.151-1.24zm4.353-6.513 2 1.333v2.93l-2 1.333-2-1.333v-2.93zm1 8.384v-1.051l2.092-1.395 1.261.574.671 2.503c-.642.52-1.368.938-2.151 1.24zm6.894-6.828c.063.406.106.819.106 1.242s-.043.836-.106 1.242l-2.61.699-1.284-.584v-2.713l1.284-.585zm-1.473 4.949.76-.204c-.165.337-.345.665-.554.973zm0-7.414.206-.769c.209.308.389.636.554.973zm-2.068-.008-1.261.574-2.092-1.394v-1.051l1.872-1.872c.783.303 1.509.72 2.151 1.24zm-4.353-3.699-.558-.558c.185-.013.37-.028.558-.028s.373.015.558.028zm-2.872-.044 1.872 1.872v1.051l-2.092 1.395-1.261-.574-.671-2.503c.643-.521 1.369-.938 2.152-1.241zm-3.755 2.982.206.769-.76.204c.165-.337.345-.665.554-.973zm.206 8.183-.206.769c-.209-.308-.389-.636-.554-.973zm5.863 4.265.558-.558.558.558c-.185.013-.37.028-.558.028s-.373-.015-.558-.028zm9.205-2.972c.855-1.473 1.353-3.178 1.353-5 0-5.514-4.486-10-10-10s-10 4.486-10 10c0 1.822.498 3.527 1.353 5h-13.353v-25h6.003c0 .024-.003.047-.003.071v1.929h2v-1.929c0-.024.003-.047.003-.071h7.076c.488 3.386 3.401 6 6.92 6s6.432-2.614 6.92-6h15.081v25z"/><path d="m47 23c-1.654 0-3 1.346-3 3s1.346 3 3 3 3-1.346 3-3-1.346-3-3-3zm0 4c-.552 0-1-.449-1-1s.448-1 1-1 1 .449 1 1-.448 1-1 1z"/><path d="m49.293 40.293-2.293 2.293-2.293-2.293-1.414 1.414 2.293 2.293-2.293 2.293 1.414 1.414 2.293-2.293 2.293 2.293 1.414-1.414-2.293-2.293 2.293-2.293z"/><path d="m19.293 36.293-2.293 2.293-2.293-2.293-1.414 1.414 2.293 2.293-2.293 2.293 1.414 1.414 2.293-2.293 2.293 2.293 1.414-1.414-2.293-2.293 2.293-2.293z"/></g></g></svg>